<svg width="60" height="60" viewBox="0 0 60 60" fill="none" xmlns="http://www.w3.org/2000/svg">
<g clip-path="url(#clip0_1_2)">
<path d="M0.866025 31.5C0.330127 30.5718 0.330127 29.4282 0.866025 28.5L14.134 5.51924C14.6699 4.59103 15.6603 4.01924 16.7321 4.01924H43.2679C44.3397 4.01924 45.3301 4.59103 45.866 5.51924L59.134 28.5C59.6699 29.4282 59.6699 30.5718 59.134 31.5L45.866 54.4808C45.3301 55.409 44.3397 55.9808 43.2679 55.9808H16.7321C15.6603 55.9808 14.6699 55.409 14.134 54.4808L0.866025 31.5Z" fill="#734BE6"/>
<g filter="url(#filter0_d_1_2)">
<path d="M22.4288 20.8087C22.4288 21.0712 22.3938 21.325 22.3238 21.57C22.2538 21.815 22.1313 22.0337 21.9563 22.2262C21.8863 22.3312 21.7638 22.4712 21.5888 22.6462C21.4138 22.8037 21.1775 23.0312 20.88 23.3287C20.145 23.9412 19.445 24.5887 18.78 25.2712C18.1325 25.9537 17.5025 26.6712 16.89 27.4237C16.68 27.6687 16.47 27.9225 16.26 28.185C16.05 28.4475 15.8838 28.7187 15.7613 28.9987C15.6388 29.2787 15.5775 29.5762 15.5775 29.8912C15.595 30.2062 15.7263 30.53 15.9713 30.8625C16.4088 31.475 16.8725 32.0612 17.3625 32.6212C17.8525 33.1812 18.3775 33.7325 18.9375 34.275C19.27 34.625 19.6025 34.9662 19.935 35.2987C20.285 35.6312 20.6175 35.9637 20.9325 36.2962C21.3525 36.7162 21.6063 37.1625 21.6938 37.635C21.7813 38.09 21.7375 38.4925 21.5625 38.8425C21.3875 39.1925 21.0988 39.4463 20.6963 39.6038C20.3113 39.7613 19.8475 39.735 19.305 39.525C19.025 39.4025 18.7538 39.2363 18.4913 39.0263C18.2288 38.8337 17.975 38.615 17.73 38.37C17.485 38.1075 17.2488 37.845 17.0213 37.5825C16.7938 37.32 16.5838 37.075 16.3913 36.8475C13.1013 33.225 11.4563 30.8275 11.4563 29.655C11.4563 28.7625 12.095 27.4675 13.3725 25.77C13.8625 25.1575 14.405 24.5187 15 23.8537C15.595 23.1712 16.26 22.4975 16.995 21.8325C17.45 21.3775 17.9138 20.9312 18.3863 20.4937C18.8763 20.0387 19.41 19.6537 19.9875 19.3387C20.2325 19.2162 20.495 19.1637 20.775 19.1812C21.0725 19.1812 21.3438 19.2512 21.5888 19.3912C21.8338 19.5137 22.035 19.6975 22.1925 19.9425C22.35 20.1875 22.4288 20.4762 22.4288 20.8087Z" fill="#E6E6E6"/>
</g>
<g filter="url(#filter1_d_1_2)">
<path d="M37.365 20.8087C37.365 20.4762 37.4438 20.1875 37.6013 19.9425C37.7588 19.6975 37.96 19.5137 38.205 19.3912C38.45 19.2512 38.7125 19.1812 38.9925 19.1812C39.29 19.1637 39.5613 19.2162 39.8063 19.3387C40.3838 19.6537 40.9088 20.0387 41.3813 20.4937C41.8713 20.9312 42.3438 21.3775 42.7988 21.8325C43.5338 22.4975 44.1988 23.1712 44.7938 23.8537C45.3888 24.5187 45.9313 25.1575 46.4213 25.77C47.6988 27.4675 48.3375 28.7625 48.3375 29.655C48.3375 30.8275 46.6925 33.225 43.4025 36.8475C43.21 37.075 43 37.32 42.7725 37.5825C42.545 37.845 42.3088 38.1075 42.0638 38.37C41.8188 38.615 41.565 38.8337 41.3025 39.0263C41.04 39.2363 40.7688 39.4025 40.4888 39.525C39.9463 39.735 39.4738 39.7613 39.0713 39.6038C38.6863 39.4463 38.4063 39.1925 38.2313 38.8425C38.0563 38.4925 38.0125 38.09 38.1 37.635C38.1875 37.1625 38.4413 36.7162 38.8613 36.2962C39.1763 35.9637 39.5 35.6312 39.8325 35.2987C40.1825 34.9662 40.5238 34.625 40.8563 34.275C41.4163 33.7325 41.9413 33.1812 42.4313 32.6212C42.9213 32.0612 43.385 31.475 43.8225 30.8625C44.05 30.53 44.1725 30.2062 44.19 29.8912C44.2075 29.5762 44.155 29.2787 44.0325 28.9987C43.91 28.7187 43.7438 28.4475 43.5338 28.185C43.3238 27.9225 43.1138 27.6687 42.9038 27.4237C42.2913 26.6712 41.6525 25.9537 40.9875 25.2712C40.34 24.5887 39.6488 23.9412 38.9138 23.3287C38.6163 23.0312 38.38 22.8037 38.205 22.6462C38.03 22.4712 37.9075 22.3312 37.8375 22.2262C37.6625 22.0337 37.54 21.815 37.47 21.57C37.4 21.325 37.365 21.0712 37.365 20.8087Z" fill="#E6E6E6"/>
</g>
<g filter="url(#filter2_d_1_2)">
<path d="M28.9493 50.9038C28.9408 51.0759 28.7853 51.214 28.4828 51.3182C27.8171 51.5474 27.1579 51.4021 26.5051 50.8823C27.5651 34.2046 28.6328 20.3502 29.708 9.31916L33.1311 7.02363L34.9897 7.70357C33.6404 13.5155 32.6601 18.7773 32.0488 23.4891C31.427 28.1705 30.9947 31.5346 30.7518 33.5812C30.5088 35.6278 30.1945 38.6465 29.8089 42.6375C29.4128 46.5983 29.1262 49.3537 28.9493 50.9038Z" fill="#E6E6E6"/>
</g>
</g>
<defs>
<filter id="filter0_d_1_2" x="11.4563" y="19.155" width="12.4725" height="22.185" filterUnits="userSpaceOnUse" color-interpolation-filters="sRGB">
<feFlood flood-opacity="0" result="BackgroundImageFix"/>
<feColorMatrix in="SourceAlpha" type="matrix" values="0 0 0 0 0 0 0 0 0 0 0 0 0 0 0 0 0 0 127 0" result="hardAlpha"/>
<feOffset dx="1.5" dy="1.5"/>
<feComposite in2="hardAlpha" operator="out"/>
<feColorMatrix type="matrix" values="0 0 0 0 0 0 0 0 0 0 0 0 0 0 0 0 0 0 0.25 0"/>
<feBlend mode="normal" in2="BackgroundImageFix" result="effect1_dropShadow_1_2"/>
<feBlend mode="normal" in="SourceGraphic" in2="effect1_dropShadow_1_2" result="shape"/>
</filter>
<filter id="filter1_d_1_2" x="37.365" y="19.155" width="12.4725" height="22.185" filterUnits="userSpaceOnUse" color-interpolation-filters="sRGB">
<feFlood flood-opacity="0" result="BackgroundImageFix"/>
<feColorMatrix in="SourceAlpha" type="matrix" values="0 0 0 0 0 0 0 0 0 0 0 0 0 0 0 0 0 0 127 0" result="hardAlpha"/>
<feOffset dx="1.5" dy="1.5"/>
<feComposite in2="hardAlpha" operator="out"/>
<feColorMatrix type="matrix" values="0 0 0 0 0 0 0 0 0 0 0 0 0 0 0 0 0 0 0.25 0"/>
<feBlend mode="normal" in2="BackgroundImageFix" result="effect1_dropShadow_1_2"/>
<feBlend mode="normal" in="SourceGraphic" in2="effect1_dropShadow_1_2" result="shape"/>
</filter>
<filter id="filter2_d_1_2" x="13.7064" y="6.52356" width="35.5196" height="46.8572" filterUnits="userSpaceOnUse" color-interpolation-filters="sRGB">
<feFlood flood-opacity="0" result="BackgroundImageFix"/>
<feColorMatrix in="SourceAlpha" type="matrix" values="0 0 0 0 0 0 0 0 0 0 0 0 0 0 0 0 0 0 127 0" result="hardAlpha"/>
<feOffset dx="1.5" dy="1.5"/>
<feComposite in2="hardAlpha" operator="out"/>
<feColorMatrix type="matrix" values="0 0 0 0 0 0 0 0 0 0 0 0 0 0 0 0 0 0 0.25 0"/>
<feBlend mode="normal" in2="BackgroundImageFix" result="effect1_dropShadow_1_2"/>
<feBlend mode="normal" in="SourceGraphic" in2="effect1_dropShadow_1_2" result="shape"/>
</filter>
<clipPath id="clip0_1_2">
<rect width="60" height="60" fill="white"/>
</clipPath>
</defs>
</svg>
